<mxfile host="65bd71144e">
    <diagram id="9gg1T1xBj6iN2cqRKnsw" name="第1頁">
        <mxGraphModel dx="1931" dy="760" grid="1" gridSize="10" guides="1" tooltips="1" connect="1" arrows="1" fold="1" page="1" pageScale="1" pageWidth="827" pageHeight="1169" math="0" shadow="0">
            <root>
                <mxCell id="0"/>
                <mxCell id="1" parent="0"/>
                <mxCell id="49" style="edgeStyle=none;html=1;endArrow=none;endFill=0;" parent="1" source="7" target="19" edge="1">
                    <mxGeometry relative="1" as="geometry"/>
                </mxCell>
                <mxCell id="52" style="edgeStyle=none;html=1;entryX=-0.016;entryY=0.747;entryDx=0;entryDy=0;entryPerimeter=0;targetPerimeterSpacing=2;rounded=0;endArrow=none;endFill=0;" parent="1" source="7" target="38" edge="1">
                    <mxGeometry relative="1" as="geometry">
                        <Array as="points">
                            <mxPoint x="-258" y="305"/>
                            <mxPoint x="-258" y="180"/>
                        </Array>
                    </mxGeometry>
                </mxCell>
                <mxCell id="53" style="edgeStyle=none;rounded=0;html=1;entryX=0;entryY=0.5;entryDx=0;entryDy=0;targetPerimeterSpacing=2;exitX=1.017;exitY=0.387;exitDx=0;exitDy=0;exitPerimeter=0;endArrow=none;endFill=0;" parent="1" source="32" target="35" edge="1">
                    <mxGeometry relative="1" as="geometry"/>
                </mxCell>
                <mxCell id="7" value="&lt;span style=&quot;color: rgb(255, 255, 255); font-family: &amp;quot;Söhne Mono&amp;quot;, Monaco, &amp;quot;Andale Mono&amp;quot;, &amp;quot;Ubuntu Mono&amp;quot;, monospace; font-size: 14px; text-align: left; background-color: rgb(13, 13, 13);&quot;&gt; 住戶  &lt;/span&gt;" style="swimlane;fontStyle=0;childLayout=stackLayout;horizontal=1;startSize=30;horizontalStack=0;resizeParent=1;resizeParentMax=0;resizeLast=0;collapsible=1;marginBottom=0;whiteSpace=wrap;html=1;fillColor=none;" parent="1" vertex="1">
                    <mxGeometry x="-528" y="230" width="230" height="150" as="geometry"/>
                </mxCell>
                <mxCell id="31" value="+ 姓名&lt;br&gt;+ 住址&lt;br&gt;- 綁定手機數" style="text;strokeColor=default;fillColor=none;align=left;verticalAlign=middle;spacingLeft=4;spacingRight=4;overflow=hidden;points=[[0,0.5],[1,0.5]];portConstraint=eastwest;rotatable=0;whiteSpace=wrap;html=1;" parent="7" vertex="1">
                    <mxGeometry y="30" width="230" height="60" as="geometry"/>
                </mxCell>
                <mxCell id="32" value="+ 查看包裹詳情&lt;br&gt;+ 查看公告&lt;br&gt;+ 回應公告" style="text;strokeColor=default;fillColor=none;align=left;verticalAlign=middle;spacingLeft=4;spacingRight=4;overflow=hidden;points=[[0,0.5],[1,0.5]];portConstraint=eastwest;rotatable=0;whiteSpace=wrap;html=1;" parent="7" vertex="1">
                    <mxGeometry y="90" width="230" height="60" as="geometry"/>
                </mxCell>
                <mxCell id="47" style="edgeStyle=none;html=1;entryX=0.5;entryY=0;entryDx=0;entryDy=0;endArrow=none;endFill=0;" parent="1" source="11" target="15" edge="1">
                    <mxGeometry relative="1" as="geometry"/>
                </mxCell>
                <mxCell id="11" value="&lt;span style=&quot;color: rgb(255, 255, 255); font-family: &amp;quot;Söhne Mono&amp;quot;, Monaco, &amp;quot;Andale Mono&amp;quot;, &amp;quot;Ubuntu Mono&amp;quot;, monospace; font-size: 14px; text-align: left; background-color: rgb(13, 13, 13);&quot;&gt;警衛&lt;/span&gt;" style="swimlane;fontStyle=0;childLayout=stackLayout;horizontal=1;startSize=30;horizontalStack=0;resizeParent=1;resizeParentMax=0;resizeLast=0;collapsible=1;marginBottom=0;whiteSpace=wrap;html=1;fillColor=none;" parent="1" vertex="1">
                    <mxGeometry x="-783" y="100" width="140" height="60" as="geometry"/>
                </mxCell>
                <mxCell id="12" value="+ 收取包裹" style="text;strokeColor=default;fillColor=none;align=left;verticalAlign=middle;spacingLeft=4;spacingRight=4;overflow=hidden;points=[[0,0.5],[1,0.5]];portConstraint=eastwest;rotatable=0;whiteSpace=wrap;html=1;" parent="11" vertex="1">
                    <mxGeometry y="30" width="140" height="30" as="geometry"/>
                </mxCell>
                <mxCell id="15" value="&lt;span style=&quot;color: rgb(255, 255, 255); font-family: &amp;quot;Söhne Mono&amp;quot;, Monaco, &amp;quot;Andale Mono&amp;quot;, &amp;quot;Ubuntu Mono&amp;quot;, monospace; font-size: 14px; text-align: left; background-color: rgb(13, 13, 13);&quot;&gt; 信件/包裹&lt;/span&gt;" style="swimlane;fontStyle=0;childLayout=stackLayout;horizontal=1;startSize=30;horizontalStack=0;resizeParent=1;resizeParentMax=0;resizeLast=0;collapsible=1;marginBottom=0;whiteSpace=wrap;html=1;fillColor=none;" parent="1" vertex="1">
                    <mxGeometry x="-783" y="250" width="140" height="110" as="geometry"/>
                </mxCell>
                <mxCell id="33" value="+ 收件人&lt;br&gt;+ 住址&lt;br&gt;+ 收件時間" style="text;strokeColor=default;fillColor=none;align=left;verticalAlign=middle;spacingLeft=4;spacingRight=4;overflow=hidden;points=[[0,0.5],[1,0.5]];portConstraint=eastwest;rotatable=0;whiteSpace=wrap;html=1;" parent="15" vertex="1">
                    <mxGeometry y="30" width="140" height="50" as="geometry"/>
                </mxCell>
                <mxCell id="21" value="+ 簽收&lt;br&gt;+ 發送推播通知" style="text;strokeColor=default;fillColor=none;align=left;verticalAlign=middle;spacingLeft=4;spacingRight=4;overflow=hidden;points=[[0,0.5],[1,0.5]];portConstraint=eastwest;rotatable=0;whiteSpace=wrap;html=1;" parent="15" vertex="1">
                    <mxGeometry y="80" width="140" height="30" as="geometry"/>
                </mxCell>
                <mxCell id="50" style="edgeStyle=none;html=1;endArrow=none;endFill=0;" parent="1" source="19" edge="1">
                    <mxGeometry relative="1" as="geometry">
                        <mxPoint x="-603" y="550" as="targetPoint"/>
                    </mxGeometry>
                </mxCell>
                <mxCell id="54" style="edgeStyle=none;rounded=0;html=1;entryX=0;entryY=0.5;entryDx=0;entryDy=0;targetPerimeterSpacing=2;endArrow=none;endFill=0;" parent="1" source="19" target="43" edge="1">
                    <mxGeometry relative="1" as="geometry"/>
                </mxCell>
                <mxCell id="19" value="&lt;span style=&quot;color: rgb(255, 255, 255); font-family: &amp;quot;Söhne Mono&amp;quot;, Monaco, &amp;quot;Andale Mono&amp;quot;, &amp;quot;Ubuntu Mono&amp;quot;, monospace; font-size: 14px; text-align: left; background-color: rgb(13, 13, 13);&quot;&gt;  公告     &lt;/span&gt;" style="swimlane;fontStyle=0;childLayout=stackLayout;horizontal=1;startSize=30;horizontalStack=0;resizeParent=1;resizeParentMax=0;resizeLast=0;collapsible=1;marginBottom=0;whiteSpace=wrap;html=1;fillColor=none;" parent="1" vertex="1">
                    <mxGeometry x="-493" y="460" width="160" height="180" as="geometry"/>
                </mxCell>
                <mxCell id="20" value="+ 公告ID&lt;br&gt;+ 標題&lt;br&gt;+ 內容&lt;br&gt;+ 發佈者:主任委員或委員&lt;br&gt;+ 回應列表" style="text;strokeColor=default;fillColor=none;align=left;verticalAlign=middle;spacingLeft=4;spacingRight=4;overflow=hidden;points=[[0,0.5],[1,0.5]];portConstraint=eastwest;rotatable=0;whiteSpace=wrap;html=1;" parent="19" vertex="1">
                    <mxGeometry y="30" width="160" height="80" as="geometry"/>
                </mxCell>
                <mxCell id="22" value="+ 新增公告&lt;br&gt;+ 修改公告&lt;br&gt;+ 刪除公告&lt;br&gt;+ 回應公告&lt;br&gt;&amp;nbsp;" style="text;strokeColor=none;fillColor=none;align=left;verticalAlign=middle;spacingLeft=4;spacingRight=4;overflow=hidden;points=[[0,0.5],[1,0.5]];portConstraint=eastwest;rotatable=0;whiteSpace=wrap;html=1;" parent="19" vertex="1">
                    <mxGeometry y="110" width="160" height="70" as="geometry"/>
                </mxCell>
                <mxCell id="34" value="&lt;span style=&quot;color: rgb(255, 255, 255); font-family: &amp;quot;Söhne Mono&amp;quot;, Monaco, &amp;quot;Andale Mono&amp;quot;, &amp;quot;Ubuntu Mono&amp;quot;, monospace; font-size: 14px; text-align: left; background-color: rgb(13, 13, 13);&quot;&gt;回應&lt;/span&gt;" style="swimlane;fontStyle=0;childLayout=stackLayout;horizontal=1;startSize=30;horizontalStack=0;resizeParent=1;resizeParentMax=0;resizeLast=0;collapsible=1;marginBottom=0;whiteSpace=wrap;html=1;fillColor=none;" parent="1" vertex="1">
                    <mxGeometry x="-183" y="278" width="140" height="110" as="geometry"/>
                </mxCell>
                <mxCell id="35" value="+ 回應&lt;br&gt;+ 內容&lt;br&gt;+ 發布者: 住戶&lt;br&gt;+ 發布時間" style="text;strokeColor=default;fillColor=none;align=left;verticalAlign=middle;spacingLeft=4;spacingRight=4;overflow=hidden;points=[[0,0.5],[1,0.5]];portConstraint=eastwest;rotatable=0;whiteSpace=wrap;html=1;" parent="34" vertex="1">
                    <mxGeometry y="30" width="140" height="70" as="geometry"/>
                </mxCell>
                <mxCell id="36" value="" style="text;strokeColor=default;fillColor=none;align=left;verticalAlign=middle;spacingLeft=4;spacingRight=4;overflow=hidden;points=[[0,0.5],[1,0.5]];portConstraint=eastwest;rotatable=0;whiteSpace=wrap;html=1;" parent="34" vertex="1">
                    <mxGeometry y="100" width="140" height="10" as="geometry"/>
                </mxCell>
                <mxCell id="37" value="&lt;span style=&quot;color: rgb(255, 255, 255); font-family: &amp;quot;Söhne Mono&amp;quot;, Monaco, &amp;quot;Andale Mono&amp;quot;, &amp;quot;Ubuntu Mono&amp;quot;, monospace; font-size: 14px; text-align: left; background-color: rgb(13, 13, 13);&quot;&gt;手機&lt;/span&gt;" style="swimlane;fontStyle=0;childLayout=stackLayout;horizontal=1;startSize=30;horizontalStack=0;resizeParent=1;resizeParentMax=0;resizeLast=0;collapsible=1;marginBottom=0;whiteSpace=wrap;html=1;fillColor=none;" parent="1" vertex="1">
                    <mxGeometry x="-228" y="120" width="140" height="100" as="geometry"/>
                </mxCell>
                <mxCell id="38" value="+ 手機號碼&lt;br&gt;+ 綁定狀態&lt;br&gt;" style="text;strokeColor=default;fillColor=none;align=left;verticalAlign=middle;spacingLeft=4;spacingRight=4;overflow=hidden;points=[[0,0.5],[1,0.5]];portConstraint=eastwest;rotatable=0;whiteSpace=wrap;html=1;" parent="37" vertex="1">
                    <mxGeometry y="30" width="140" height="40" as="geometry"/>
                </mxCell>
                <mxCell id="39" value="+ 發送推播通知" style="text;strokeColor=default;fillColor=none;align=left;verticalAlign=middle;spacingLeft=4;spacingRight=4;overflow=hidden;points=[[0,0.5],[1,0.5]];portConstraint=eastwest;rotatable=0;whiteSpace=wrap;html=1;" parent="37" vertex="1">
                    <mxGeometry y="70" width="140" height="30" as="geometry"/>
                </mxCell>
                <mxCell id="40" value="&lt;span style=&quot;color: rgb(255, 255, 255); font-family: &amp;quot;Söhne Mono&amp;quot;, Monaco, &amp;quot;Andale Mono&amp;quot;, &amp;quot;Ubuntu Mono&amp;quot;, monospace; font-size: 14px; text-align: left; background-color: rgb(13, 13, 13);&quot;&gt;委員&lt;/span&gt;" style="swimlane;fontStyle=0;childLayout=stackLayout;horizontal=1;startSize=30;horizontalStack=0;resizeParent=1;resizeParentMax=0;resizeLast=0;collapsible=1;marginBottom=0;whiteSpace=wrap;html=1;fillColor=none;" parent="1" vertex="1">
                    <mxGeometry x="-228" y="475" width="140" height="110" as="geometry"/>
                </mxCell>
                <mxCell id="42" value="" style="text;strokeColor=default;fillColor=none;align=left;verticalAlign=middle;spacingLeft=4;spacingRight=4;overflow=hidden;points=[[0,0.5],[1,0.5]];portConstraint=eastwest;rotatable=0;whiteSpace=wrap;html=1;" parent="40" vertex="1">
                    <mxGeometry y="30" width="140" height="10" as="geometry"/>
                </mxCell>
                <mxCell id="43" value="+ 新增公告&lt;br&gt;+ 修改公告&lt;br&gt;+ 刪除公告&lt;br&gt;+ 回應公告&lt;br&gt;&amp;nbsp;" style="text;strokeColor=none;fillColor=none;align=left;verticalAlign=middle;spacingLeft=4;spacingRight=4;overflow=hidden;points=[[0,0.5],[1,0.5]];portConstraint=eastwest;rotatable=0;whiteSpace=wrap;html=1;" parent="40" vertex="1">
                    <mxGeometry y="40" width="140" height="70" as="geometry"/>
                </mxCell>
                <mxCell id="44" value="&lt;span style=&quot;color: rgb(255, 255, 255); font-family: &amp;quot;Söhne Mono&amp;quot;, Monaco, &amp;quot;Andale Mono&amp;quot;, &amp;quot;Ubuntu Mono&amp;quot;, monospace; font-size: 14px; text-align: left; background-color: rgb(13, 13, 13);&quot;&gt;主任委員&lt;/span&gt;" style="swimlane;fontStyle=0;childLayout=stackLayout;horizontal=1;startSize=30;horizontalStack=0;resizeParent=1;resizeParentMax=0;resizeLast=0;collapsible=1;marginBottom=0;whiteSpace=wrap;html=1;fillColor=none;" parent="1" vertex="1">
                    <mxGeometry x="-743" y="500" width="140" height="110" as="geometry"/>
                </mxCell>
                <mxCell id="46" value="+ 新增公告&lt;br&gt;+ 修改公告&lt;br&gt;+ 刪除公告&lt;br&gt;+ 回應公告&lt;br&gt;&amp;nbsp;" style="text;strokeColor=none;fillColor=none;align=left;verticalAlign=middle;spacingLeft=4;spacingRight=4;overflow=hidden;points=[[0,0.5],[1,0.5]];portConstraint=eastwest;rotatable=0;whiteSpace=wrap;html=1;" parent="44" vertex="1">
                    <mxGeometry y="30" width="140" height="70" as="geometry"/>
                </mxCell>
                <mxCell id="45" value="" style="text;strokeColor=default;fillColor=none;align=left;verticalAlign=middle;spacingLeft=4;spacingRight=4;overflow=hidden;points=[[0,0.5],[1,0.5]];portConstraint=eastwest;rotatable=0;whiteSpace=wrap;html=1;" parent="44" vertex="1">
                    <mxGeometry y="100" width="140" height="10" as="geometry"/>
                </mxCell>
                <mxCell id="48" style="edgeStyle=none;html=1;endArrow=none;endFill=0;" parent="1" source="33" target="7" edge="1">
                    <mxGeometry relative="1" as="geometry"/>
                </mxCell>
                <mxCell id="56" value="&lt;font style=&quot;font-size: 12px;&quot;&gt;簽收&lt;/font&gt;" style="text;html=1;align=center;verticalAlign=middle;resizable=0;points=[];autosize=1;strokeColor=none;fillColor=none;strokeWidth=2;" parent="1" vertex="1">
                    <mxGeometry x="-720.5" y="160" width="50" height="30" as="geometry"/>
                </mxCell>
                <mxCell id="57" value="1" style="text;html=1;align=center;verticalAlign=middle;resizable=0;points=[];autosize=1;strokeColor=none;fillColor=none;fontSize=12;strokeWidth=0;" parent="1" vertex="1">
                    <mxGeometry x="-738" y="157" width="30" height="30" as="geometry"/>
                </mxCell>
                <mxCell id="58" value="1..*" style="text;html=1;align=center;verticalAlign=middle;resizable=0;points=[];autosize=1;strokeColor=none;fillColor=none;fontSize=12;strokeWidth=0;" parent="1" vertex="1">
                    <mxGeometry x="-746" y="223" width="40" height="30" as="geometry"/>
                </mxCell>
                <mxCell id="59" value="1" style="text;html=1;align=center;verticalAlign=middle;resizable=0;points=[];autosize=1;strokeColor=none;fillColor=none;fontSize=12;strokeWidth=0;" parent="1" vertex="1">
                    <mxGeometry x="-552" y="278" width="30" height="30" as="geometry"/>
                </mxCell>
                <mxCell id="60" value="1..*" style="text;html=1;align=center;verticalAlign=middle;resizable=0;points=[];autosize=1;strokeColor=none;fillColor=none;fontSize=12;strokeWidth=0;" parent="1" vertex="1">
                    <mxGeometry x="-648" y="278" width="40" height="30" as="geometry"/>
                </mxCell>
                <mxCell id="66" value="" style="triangle;whiteSpace=wrap;html=1;strokeColor=default;fillColor=none;rotation=90;" parent="1" vertex="1">
                    <mxGeometry x="-700.5" y="187" width="10" height="12" as="geometry"/>
                </mxCell>
                <mxCell id="68" value="1" style="text;html=1;align=center;verticalAlign=middle;resizable=0;points=[];autosize=1;strokeColor=none;fillColor=none;fontSize=12;strokeWidth=0;" parent="1" vertex="1">
                    <mxGeometry x="-609.87" y="525" width="30" height="30" as="geometry"/>
                </mxCell>
                <mxCell id="69" value="1..*" style="text;html=1;align=center;verticalAlign=middle;resizable=0;points=[];autosize=1;strokeColor=none;fillColor=none;fontSize=12;strokeWidth=0;" parent="1" vertex="1">
                    <mxGeometry x="-528" y="525" width="40" height="30" as="geometry"/>
                </mxCell>
                <mxCell id="78" value="" style="group" parent="1" vertex="1" connectable="0">
                    <mxGeometry x="-572" y="516" width="50" height="30" as="geometry"/>
                </mxCell>
                <mxCell id="70" value="" style="triangle;whiteSpace=wrap;html=1;strokeColor=default;fillColor=none;rotation=0;" parent="78" vertex="1">
                    <mxGeometry x="40" y="9" width="10" height="12" as="geometry"/>
                </mxCell>
                <mxCell id="73" value="&lt;font style=&quot;font-size: 12px;&quot;&gt;發佈&lt;/font&gt;" style="text;html=1;align=center;verticalAlign=middle;resizable=0;points=[];autosize=1;strokeColor=none;fillColor=none;strokeWidth=2;" parent="78" vertex="1">
                    <mxGeometry width="50" height="30" as="geometry"/>
                </mxCell>
                <mxCell id="79" value="" style="group" parent="1" vertex="1" connectable="0">
                    <mxGeometry x="-589.87" y="274" width="50" height="30" as="geometry"/>
                </mxCell>
                <mxCell id="61" value="" style="triangle;whiteSpace=wrap;html=1;strokeColor=default;fillColor=none;rotation=-180;" parent="79" vertex="1">
                    <mxGeometry y="8" width="10" height="12" as="geometry"/>
                </mxCell>
                <mxCell id="63" value="&lt;font style=&quot;font-size: 12px;&quot;&gt;領取&lt;/font&gt;" style="text;html=1;align=center;verticalAlign=middle;resizable=0;points=[];autosize=1;strokeColor=none;fillColor=none;strokeWidth=2;" parent="79" vertex="1">
                    <mxGeometry width="50" height="30" as="geometry"/>
                </mxCell>
                <mxCell id="81" value="1..*" style="text;html=1;align=center;verticalAlign=middle;resizable=0;points=[];autosize=1;strokeColor=none;fillColor=none;fontSize=12;strokeWidth=0;" parent="1" vertex="1">
                    <mxGeometry x="-343" y="524" width="40" height="30" as="geometry"/>
                </mxCell>
                <mxCell id="86" value="1" style="text;html=1;align=center;verticalAlign=middle;resizable=0;points=[];autosize=1;strokeColor=none;fillColor=none;fontSize=12;strokeWidth=0;" parent="1" vertex="1">
                    <mxGeometry x="-303" y="278" width="30" height="30" as="geometry"/>
                </mxCell>
                <mxCell id="87" value="0..2" style="text;html=1;align=center;verticalAlign=middle;resizable=0;points=[];autosize=1;strokeColor=none;fillColor=none;fontSize=12;strokeWidth=0;" parent="1" vertex="1">
                    <mxGeometry x="-268" y="155" width="40" height="30" as="geometry"/>
                </mxCell>
                <mxCell id="88" value="" style="triangle;whiteSpace=wrap;html=1;strokeColor=default;fillColor=none;rotation=-90;" parent="1" vertex="1">
                    <mxGeometry x="-273" y="199" width="10" height="12" as="geometry"/>
                </mxCell>
                <mxCell id="91" value="綁&lt;br&gt;定" style="text;html=1;align=center;verticalAlign=middle;resizable=0;points=[];autosize=1;strokeColor=none;fillColor=none;fontSize=12;" parent="1" vertex="1">
                    <mxGeometry x="-289" y="211" width="40" height="40" as="geometry"/>
                </mxCell>
                <mxCell id="92" value="1" style="text;html=1;align=center;verticalAlign=middle;resizable=0;points=[];autosize=1;strokeColor=none;fillColor=none;fontSize=12;strokeWidth=0;" parent="1" vertex="1">
                    <mxGeometry x="-303" y="318" width="30" height="30" as="geometry"/>
                </mxCell>
                <mxCell id="93" value="1..*" style="text;html=1;align=center;verticalAlign=middle;resizable=0;points=[];autosize=1;strokeColor=none;fillColor=none;fontSize=12;strokeWidth=0;" parent="1" vertex="1">
                    <mxGeometry x="-223" y="318" width="40" height="30" as="geometry"/>
                </mxCell>
                <mxCell id="74" value="&lt;font style=&quot;font-size: 12px;&quot;&gt;發佈&lt;/font&gt;" style="text;html=1;align=center;verticalAlign=middle;resizable=0;points=[];autosize=1;strokeColor=none;fillColor=none;strokeWidth=2;" parent="1" vertex="1">
                    <mxGeometry x="-283" y="515" width="50" height="30" as="geometry"/>
                </mxCell>
                <mxCell id="75" value="" style="triangle;whiteSpace=wrap;html=1;strokeColor=default;fillColor=none;rotation=-180;" parent="1" vertex="1">
                    <mxGeometry x="-283" y="524" width="10" height="12" as="geometry"/>
                </mxCell>
                <mxCell id="80" value="1" style="text;html=1;align=center;verticalAlign=middle;resizable=0;points=[];autosize=1;strokeColor=none;fillColor=none;fontSize=12;strokeWidth=0;" parent="1" vertex="1">
                    <mxGeometry x="-253" y="524" width="30" height="30" as="geometry"/>
                </mxCell>
                <mxCell id="96" value="" style="group" parent="1" vertex="1" connectable="0">
                    <mxGeometry x="-268" y="318" width="50" height="30" as="geometry"/>
                </mxCell>
                <mxCell id="94" value="" style="triangle;whiteSpace=wrap;html=1;strokeColor=default;fillColor=none;rotation=0;" parent="96" vertex="1">
                    <mxGeometry x="40" y="9" width="10" height="12" as="geometry"/>
                </mxCell>
                <mxCell id="95" value="&lt;font style=&quot;font-size: 12px;&quot;&gt;發佈&lt;/font&gt;" style="text;html=1;align=center;verticalAlign=middle;resizable=0;points=[];autosize=1;strokeColor=none;fillColor=none;strokeWidth=2;" parent="96" vertex="1">
                    <mxGeometry width="50" height="30" as="geometry"/>
                </mxCell>
            </root>
        </mxGraphModel>
    </diagram>
    <diagram id="wZ8EG4KLfT8STXQktqrc" name="第2頁">
        <mxGraphModel dx="762" dy="525" grid="1" gridSize="10" guides="1" tooltips="1" connect="1" arrows="1" fold="1" page="1" pageScale="1" pageWidth="827" pageHeight="1169" math="0" shadow="0">
            <root>
                <mxCell id="0"/>
                <mxCell id="1" parent="0"/>
                <mxCell id="mAGCSCqPMlgxsn1wnfBh-1" value="Resident" style="shape=umlActor;verticalLabelPosition=bottom;verticalAlign=top;html=1;outlineConnect=0;" parent="1" vertex="1">
                    <mxGeometry x="75" y="227.5" width="27.5" height="55" as="geometry"/>
                </mxCell>
                <mxCell id="mAGCSCqPMlgxsn1wnfBh-6" value="App" style="rounded=0;whiteSpace=wrap;html=1;fillColor=none;" parent="1" vertex="1">
                    <mxGeometry x="280" y="260" width="100" height="30" as="geometry"/>
                </mxCell>
                <mxCell id="mAGCSCqPMlgxsn1wnfBh-16" value="Checkpackagenotification()" style="text;html=1;align=center;verticalAlign=middle;resizable=0;points=[];autosize=1;strokeColor=none;fillColor=none;" parent="1" vertex="1">
                    <mxGeometry x="130" y="310" width="170" height="30" as="geometry"/>
                </mxCell>
                <mxCell id="mAGCSCqPMlgxsn1wnfBh-27" value="" style="rounded=0;whiteSpace=wrap;html=1;fillColor=#FFFFFF;rotation=90;strokeColor=#000000;" parent="1" vertex="1">
                    <mxGeometry x="303.75" y="350.25" width="52.5" height="14.5" as="geometry"/>
                </mxCell>
                <mxCell id="mAGCSCqPMlgxsn1wnfBh-29" style="edgeStyle=none;html=1;endArrow=none;endFill=0;dashed=1;exitX=0;exitY=0.5;exitDx=0;exitDy=0;" parent="1" source="mAGCSCqPMlgxsn1wnfBh-27" edge="1">
                    <mxGeometry relative="1" as="geometry">
                        <mxPoint x="330.12" y="326.87" as="sourcePoint"/>
                        <mxPoint x="330" y="290" as="targetPoint"/>
                    </mxGeometry>
                </mxCell>
                <mxCell id="mAGCSCqPMlgxsn1wnfBh-34" style="edgeStyle=none;html=1;endArrow=none;endFill=0;dashed=1;" parent="1" edge="1">
                    <mxGeometry relative="1" as="geometry">
                        <mxPoint x="88" y="450" as="sourcePoint"/>
                        <mxPoint x="90" y="300" as="targetPoint"/>
                    </mxGeometry>
                </mxCell>
                <mxCell id="mAGCSCqPMlgxsn1wnfBh-37" value="" style="endArrow=classic;html=1;entryX=0;entryY=1;entryDx=0;entryDy=0;" parent="1" edge="1">
                    <mxGeometry width="50" height="50" relative="1" as="geometry">
                        <mxPoint x="90" y="340" as="sourcePoint"/>
                        <mxPoint x="322.75" y="340.2500000000002" as="targetPoint"/>
                    </mxGeometry>
                </mxCell>
                <mxCell id="mAGCSCqPMlgxsn1wnfBh-40" value="" style="endArrow=classic;html=1;exitX=1;exitY=0.25;exitDx=0;exitDy=0;dashed=1;" parent="1" edge="1">
                    <mxGeometry width="50" height="50" relative="1" as="geometry">
                        <mxPoint x="333.6250000000002" y="375.75" as="sourcePoint"/>
                        <mxPoint x="90" y="375" as="targetPoint"/>
                    </mxGeometry>
                </mxCell>
                <mxCell id="mAGCSCqPMlgxsn1wnfBh-56" style="edgeStyle=none;html=1;entryX=0.013;entryY=-0.089;entryDx=0;entryDy=0;entryPerimeter=0;endArrow=none;endFill=0;dashed=1;" parent="1" edge="1">
                    <mxGeometry relative="1" as="geometry">
                        <mxPoint x="330" y="450" as="sourcePoint"/>
                        <mxPoint x="330.3800000000001" y="387.53" as="targetPoint"/>
                    </mxGeometry>
                </mxCell>
                <mxCell id="sUYYkm4skal2olgfPNQq-2" value="Displaynotice&lt;br&gt;" style="text;html=1;align=center;verticalAlign=middle;resizable=0;points=[];autosize=1;strokeColor=none;fillColor=none;" vertex="1" parent="1">
                    <mxGeometry x="160" y="350.25" width="90" height="30" as="geometry"/>
                </mxCell>
            </root>
        </mxGraphModel>
    </diagram>
    <diagram id="BCzleYmrUUt8XYiNPfO9" name="第3頁">
        <mxGraphModel dx="762" dy="525" grid="1" gridSize="10" guides="1" tooltips="1" connect="1" arrows="1" fold="1" page="1" pageScale="1" pageWidth="827" pageHeight="1169" math="0" shadow="0">
            <root>
                <mxCell id="0"/>
                <mxCell id="1" parent="0"/>
                <mxCell id="RKTftYoluAeSTUTYI1xg-6" value="" style="endArrow=none;dashed=1;html=1;strokeWidth=1;startSize=6;sourcePerimeterSpacing=0;targetPerimeterSpacing=0;jumpSize=6;" parent="1" edge="1">
                    <mxGeometry width="50" height="50" relative="1" as="geometry">
                        <mxPoint x="130" y="570" as="sourcePoint"/>
                        <mxPoint x="132" y="350" as="targetPoint"/>
                    </mxGeometry>
                </mxCell>
                <mxCell id="RKTftYoluAeSTUTYI1xg-8" value="Viewcommunityannouncements()" style="text;html=1;align=center;verticalAlign=middle;resizable=0;points=[];autosize=1;strokeColor=none;fillColor=none;" parent="1" vertex="1">
                    <mxGeometry x="141.92" y="371" width="200" height="30" as="geometry"/>
                </mxCell>
                <mxCell id="RKTftYoluAeSTUTYI1xg-15" value="" style="rounded=0;whiteSpace=wrap;html=1;strokeColor=#000000;fillColor=#FFFFFF;rotation=90;" parent="1" vertex="1">
                    <mxGeometry x="342.26" y="419.2" width="58.08" height="18.18" as="geometry"/>
                </mxCell>
                <mxCell id="RKTftYoluAeSTUTYI1xg-17" value="" style="endArrow=none;dashed=1;html=1;strokeWidth=1;startSize=6;sourcePerimeterSpacing=0;targetPerimeterSpacing=0;jumpSize=6;" parent="1" edge="1">
                    <mxGeometry width="50" height="50" relative="1" as="geometry">
                        <mxPoint x="372" y="570" as="sourcePoint"/>
                        <mxPoint x="371.6700000000001" y="450" as="targetPoint"/>
                    </mxGeometry>
                </mxCell>
                <mxCell id="RKTftYoluAeSTUTYI1xg-18" value="" style="endArrow=none;dashed=1;html=1;strokeWidth=1;startSize=6;sourcePerimeterSpacing=0;targetPerimeterSpacing=0;jumpSize=6;exitX=0;exitY=0.5;exitDx=0;exitDy=0;" parent="1" source="RKTftYoluAeSTUTYI1xg-15" edge="1">
                    <mxGeometry width="50" height="50" relative="1" as="geometry">
                        <mxPoint x="371.47" y="390" as="sourcePoint"/>
                        <mxPoint x="372" y="340" as="targetPoint"/>
                    </mxGeometry>
                </mxCell>
                <mxCell id="l3Myt41Zj4TcFvRDpJ_x-1" value="Resident" style="shape=umlActor;verticalLabelPosition=bottom;verticalAlign=top;html=1;outlineConnect=0;" parent="1" vertex="1">
                    <mxGeometry x="118" y="270" width="27.5" height="55" as="geometry"/>
                </mxCell>
                <mxCell id="l3Myt41Zj4TcFvRDpJ_x-3" value="&lt;font color=&quot;#ffffff&quot;&gt;APP&lt;/font&gt;" style="rounded=0;whiteSpace=wrap;html=1;strokeColor=#FFFFFF;fillColor=none;" parent="1" vertex="1">
                    <mxGeometry x="326.3" y="305" width="90" height="35" as="geometry"/>
                </mxCell>
                <mxCell id="l3Myt41Zj4TcFvRDpJ_x-10" value="" style="endArrow=classic;html=1;strokeWidth=1;startSize=6;sourcePerimeterSpacing=0;targetPerimeterSpacing=0;jumpSize=6;" parent="1" edge="1">
                    <mxGeometry width="50" height="50" relative="1" as="geometry">
                        <mxPoint x="362" y="448" as="sourcePoint"/>
                        <mxPoint x="132.38" y="446" as="targetPoint"/>
                    </mxGeometry>
                </mxCell>
                <mxCell id="7YUIWyWW8uBMzjzT8FeY-1" value="Display announcements" style="text;html=1;align=center;verticalAlign=middle;resizable=0;points=[];autosize=1;strokeColor=none;fillColor=none;" vertex="1" parent="1">
                    <mxGeometry x="160.92" y="422" width="150" height="30" as="geometry"/>
                </mxCell>
                <mxCell id="KFoGQqZyh1p7FZLOTgOg-1" value="" style="endArrow=classic;html=1;entryX=0;entryY=1;entryDx=0;entryDy=0;" edge="1" parent="1">
                    <mxGeometry width="50" height="50" relative="1" as="geometry">
                        <mxPoint x="130" y="410" as="sourcePoint"/>
                        <mxPoint x="362.75" y="410.2500000000002" as="targetPoint"/>
                    </mxGeometry>
                </mxCell>
            </root>
        </mxGraphModel>
    </diagram>
    <diagram id="uHjJv9iI9nqWK3nSmOUU" name="第4頁">
        <mxGraphModel dx="762" dy="525" grid="1" gridSize="10" guides="1" tooltips="1" connect="1" arrows="1" fold="1" page="1" pageScale="1" pageWidth="827" pageHeight="1169" math="0" shadow="0">
            <root>
                <mxCell id="0"/>
                <mxCell id="1" parent="0"/>
                <mxCell id="XTXuwHWneIwqZL5scFWo-1" value="" style="endArrow=none;dashed=1;html=1;strokeWidth=1;startSize=6;sourcePerimeterSpacing=0;targetPerimeterSpacing=0;jumpSize=6;" edge="1" parent="1">
                    <mxGeometry width="50" height="50" relative="1" as="geometry">
                        <mxPoint x="242" y="610" as="sourcePoint"/>
                        <mxPoint x="244" y="390" as="targetPoint"/>
                    </mxGeometry>
                </mxCell>
                <mxCell id="XTXuwHWneIwqZL5scFWo-2" value="PostCommunityEvent()" style="text;html=1;align=center;verticalAlign=middle;resizable=0;points=[];autosize=1;strokeColor=none;fillColor=none;" vertex="1" parent="1">
                    <mxGeometry x="272.91999999999996" y="420" width="150" height="30" as="geometry"/>
                </mxCell>
                <mxCell id="XTXuwHWneIwqZL5scFWo-3" value="" style="rounded=0;whiteSpace=wrap;html=1;strokeColor=#000000;fillColor=#FFFFFF;rotation=90;" vertex="1" parent="1">
                    <mxGeometry x="454.26" y="459.2" width="58.08" height="18.18" as="geometry"/>
                </mxCell>
                <mxCell id="XTXuwHWneIwqZL5scFWo-4" value="" style="endArrow=none;dashed=1;html=1;strokeWidth=1;startSize=6;sourcePerimeterSpacing=0;targetPerimeterSpacing=0;jumpSize=6;" edge="1" parent="1">
                    <mxGeometry width="50" height="50" relative="1" as="geometry">
                        <mxPoint x="484" y="610" as="sourcePoint"/>
                        <mxPoint x="483.6700000000001" y="490" as="targetPoint"/>
                    </mxGeometry>
                </mxCell>
                <mxCell id="XTXuwHWneIwqZL5scFWo-5" value="" style="endArrow=none;dashed=1;html=1;strokeWidth=1;startSize=6;sourcePerimeterSpacing=0;targetPerimeterSpacing=0;jumpSize=6;exitX=0;exitY=0.5;exitDx=0;exitDy=0;" edge="1" parent="1" source="XTXuwHWneIwqZL5scFWo-3">
                    <mxGeometry width="50" height="50" relative="1" as="geometry">
                        <mxPoint x="483.47" y="430" as="sourcePoint"/>
                        <mxPoint x="484" y="380" as="targetPoint"/>
                    </mxGeometry>
                </mxCell>
                <mxCell id="XTXuwHWneIwqZL5scFWo-6" value="committeeMember" style="shape=umlActor;verticalLabelPosition=bottom;verticalAlign=top;html=1;outlineConnect=0;" vertex="1" parent="1">
                    <mxGeometry x="230" y="310" width="27.5" height="55" as="geometry"/>
                </mxCell>
                <mxCell id="XTXuwHWneIwqZL5scFWo-7" value="&lt;font color=&quot;#ffffff&quot;&gt;APP&lt;/font&gt;" style="rounded=0;whiteSpace=wrap;html=1;strokeColor=#FFFFFF;fillColor=none;" vertex="1" parent="1">
                    <mxGeometry x="438.29999999999995" y="345" width="90" height="35" as="geometry"/>
                </mxCell>
                <mxCell id="XTXuwHWneIwqZL5scFWo-8" value="" style="endArrow=classic;html=1;strokeWidth=1;startSize=6;sourcePerimeterSpacing=0;targetPerimeterSpacing=0;jumpSize=6;" edge="1" parent="1">
                    <mxGeometry width="50" height="50" relative="1" as="geometry">
                        <mxPoint x="474" y="488" as="sourcePoint"/>
                        <mxPoint x="244.38" y="486" as="targetPoint"/>
                    </mxGeometry>
                </mxCell>
                <mxCell id="XTXuwHWneIwqZL5scFWo-9" value="Notificationsuccessful" style="text;html=1;align=center;verticalAlign=middle;resizable=0;points=[];autosize=1;strokeColor=none;fillColor=none;" vertex="1" parent="1">
                    <mxGeometry x="277.91999999999996" y="462" width="140" height="30" as="geometry"/>
                </mxCell>
                <mxCell id="XTXuwHWneIwqZL5scFWo-10" value="" style="endArrow=classic;html=1;entryX=0;entryY=1;entryDx=0;entryDy=0;" edge="1" parent="1">
                    <mxGeometry width="50" height="50" relative="1" as="geometry">
                        <mxPoint x="242" y="450" as="sourcePoint"/>
                        <mxPoint x="474.75" y="450.2500000000002" as="targetPoint"/>
                    </mxGeometry>
                </mxCell>
            </root>
        </mxGraphModel>
    </diagram>
    <diagram id="jD3OHQOiYkp4ncWh-HjI" name="第5頁">
        <mxGraphModel dx="762" dy="525" grid="1" gridSize="10" guides="1" tooltips="1" connect="1" arrows="1" fold="1" page="1" pageScale="1" pageWidth="827" pageHeight="1169" math="0" shadow="0">
            <root>
                <mxCell id="0"/>
                <mxCell id="1" parent="0"/>
                <mxCell id="ggdcQmmBuKAxl0EA_KKR-1" value="" style="endArrow=none;dashed=1;html=1;strokeWidth=1;startSize=6;sourcePerimeterSpacing=0;targetPerimeterSpacing=0;jumpSize=6;" edge="1" parent="1">
                    <mxGeometry width="50" height="50" relative="1" as="geometry">
                        <mxPoint x="192" y="585" as="sourcePoint"/>
                        <mxPoint x="193.9999999999999" y="365" as="targetPoint"/>
                    </mxGeometry>
                </mxCell>
                <mxCell id="ggdcQmmBuKAxl0EA_KKR-2" value="ReportSafetyIncident()" style="text;html=1;align=center;verticalAlign=middle;resizable=0;points=[];autosize=1;strokeColor=none;fillColor=none;" vertex="1" parent="1">
                    <mxGeometry x="227.91999999999996" y="395" width="140" height="30" as="geometry"/>
                </mxCell>
                <mxCell id="ggdcQmmBuKAxl0EA_KKR-3" value="" style="rounded=0;whiteSpace=wrap;html=1;strokeColor=#000000;fillColor=#FFFFFF;rotation=90;" vertex="1" parent="1">
                    <mxGeometry x="404.26" y="434.2" width="58.08" height="18.18" as="geometry"/>
                </mxCell>
                <mxCell id="ggdcQmmBuKAxl0EA_KKR-4" value="" style="endArrow=none;dashed=1;html=1;strokeWidth=1;startSize=6;sourcePerimeterSpacing=0;targetPerimeterSpacing=0;jumpSize=6;" edge="1" parent="1">
                    <mxGeometry width="50" height="50" relative="1" as="geometry">
                        <mxPoint x="434" y="585" as="sourcePoint"/>
                        <mxPoint x="433.6700000000001" y="465" as="targetPoint"/>
                    </mxGeometry>
                </mxCell>
                <mxCell id="ggdcQmmBuKAxl0EA_KKR-5" value="" style="endArrow=none;dashed=1;html=1;strokeWidth=1;startSize=6;sourcePerimeterSpacing=0;targetPerimeterSpacing=0;jumpSize=6;exitX=0;exitY=0.5;exitDx=0;exitDy=0;" edge="1" parent="1" source="ggdcQmmBuKAxl0EA_KKR-3">
                    <mxGeometry width="50" height="50" relative="1" as="geometry">
                        <mxPoint x="433.47" y="405" as="sourcePoint"/>
                        <mxPoint x="434" y="355" as="targetPoint"/>
                    </mxGeometry>
                </mxCell>
                <mxCell id="ggdcQmmBuKAxl0EA_KKR-6" value="Guard" style="shape=umlActor;verticalLabelPosition=bottom;verticalAlign=top;html=1;outlineConnect=0;" vertex="1" parent="1">
                    <mxGeometry x="180" y="285" width="27.5" height="55" as="geometry"/>
                </mxCell>
                <mxCell id="ggdcQmmBuKAxl0EA_KKR-7" value="&lt;font color=&quot;#ffffff&quot;&gt;APP&lt;/font&gt;" style="rounded=0;whiteSpace=wrap;html=1;strokeColor=#FFFFFF;fillColor=none;" vertex="1" parent="1">
                    <mxGeometry x="388.29999999999995" y="320" width="90" height="35" as="geometry"/>
                </mxCell>
                <mxCell id="ggdcQmmBuKAxl0EA_KKR-8" value="" style="endArrow=classic;html=1;strokeWidth=1;startSize=6;sourcePerimeterSpacing=0;targetPerimeterSpacing=0;jumpSize=6;" edge="1" parent="1">
                    <mxGeometry width="50" height="50" relative="1" as="geometry">
                        <mxPoint x="424" y="463" as="sourcePoint"/>
                        <mxPoint x="194.38" y="460.9999999999999" as="targetPoint"/>
                    </mxGeometry>
                </mxCell>
                <mxCell id="ggdcQmmBuKAxl0EA_KKR-9" value="Notifysuccess" style="text;html=1;align=center;verticalAlign=middle;resizable=0;points=[];autosize=1;strokeColor=none;fillColor=none;" vertex="1" parent="1">
                    <mxGeometry x="247.91999999999996" y="437" width="100" height="30" as="geometry"/>
                </mxCell>
                <mxCell id="ggdcQmmBuKAxl0EA_KKR-10" value="" style="endArrow=classic;html=1;entryX=0;entryY=1;entryDx=0;entryDy=0;" edge="1" parent="1">
                    <mxGeometry width="50" height="50" relative="1" as="geometry">
                        <mxPoint x="192" y="425" as="sourcePoint"/>
                        <mxPoint x="424.75" y="425.2500000000002" as="targetPoint"/>
                    </mxGeometry>
                </mxCell>
            </root>
        </mxGraphModel>
    </diagram>
    <diagram id="-Fmjwv0yqj95WA-TdLZ1" name="第6頁">
        <mxGraphModel dx="762" dy="525" grid="1" gridSize="10" guides="1" tooltips="1" connect="1" arrows="1" fold="1" page="1" pageScale="1" pageWidth="827" pageHeight="1169" math="0" shadow="0">
            <root>
                <mxCell id="0"/>
                <mxCell id="1" parent="0"/>
                <mxCell id="ih1GTp4goqAnx9n_RKBW-1" value="" style="endArrow=none;dashed=1;html=1;strokeWidth=1;startSize=6;sourcePerimeterSpacing=0;targetPerimeterSpacing=0;jumpSize=6;" edge="1" parent="1">
                    <mxGeometry width="50" height="50" relative="1" as="geometry">
                        <mxPoint x="252" y="650" as="sourcePoint"/>
                        <mxPoint x="253.9999999999999" y="430" as="targetPoint"/>
                    </mxGeometry>
                </mxCell>
                <mxCell id="ih1GTp4goqAnx9n_RKBW-2" value="SubmitMaintenanceRequest()" style="text;html=1;align=center;verticalAlign=middle;resizable=0;points=[];autosize=1;strokeColor=none;fillColor=none;" vertex="1" parent="1">
                    <mxGeometry x="267.91999999999996" y="460" width="180" height="30" as="geometry"/>
                </mxCell>
                <mxCell id="ih1GTp4goqAnx9n_RKBW-3" value="" style="rounded=0;whiteSpace=wrap;html=1;strokeColor=#000000;fillColor=#FFFFFF;rotation=90;" vertex="1" parent="1">
                    <mxGeometry x="464.26" y="499.2" width="58.08" height="18.18" as="geometry"/>
                </mxCell>
                <mxCell id="ih1GTp4goqAnx9n_RKBW-4" value="" style="endArrow=none;dashed=1;html=1;strokeWidth=1;startSize=6;sourcePerimeterSpacing=0;targetPerimeterSpacing=0;jumpSize=6;" edge="1" parent="1">
                    <mxGeometry width="50" height="50" relative="1" as="geometry">
                        <mxPoint x="494" y="650" as="sourcePoint"/>
                        <mxPoint x="493.6700000000001" y="530" as="targetPoint"/>
                    </mxGeometry>
                </mxCell>
                <mxCell id="ih1GTp4goqAnx9n_RKBW-5" value="" style="endArrow=none;dashed=1;html=1;strokeWidth=1;startSize=6;sourcePerimeterSpacing=0;targetPerimeterSpacing=0;jumpSize=6;exitX=0;exitY=0.5;exitDx=0;exitDy=0;" edge="1" parent="1" source="ih1GTp4goqAnx9n_RKBW-3">
                    <mxGeometry width="50" height="50" relative="1" as="geometry">
                        <mxPoint x="493.47" y="470" as="sourcePoint"/>
                        <mxPoint x="494" y="420" as="targetPoint"/>
                    </mxGeometry>
                </mxCell>
                <mxCell id="ih1GTp4goqAnx9n_RKBW-6" value="maintenance personnel" style="shape=umlActor;verticalLabelPosition=bottom;verticalAlign=top;html=1;outlineConnect=0;" vertex="1" parent="1">
                    <mxGeometry x="240" y="350" width="27.5" height="55" as="geometry"/>
                </mxCell>
                <mxCell id="ih1GTp4goqAnx9n_RKBW-7" value="&lt;font color=&quot;#ffffff&quot;&gt;APP&lt;/font&gt;" style="rounded=0;whiteSpace=wrap;html=1;strokeColor=#FFFFFF;fillColor=none;" vertex="1" parent="1">
                    <mxGeometry x="448.29999999999995" y="385" width="90" height="35" as="geometry"/>
                </mxCell>
                <mxCell id="ih1GTp4goqAnx9n_RKBW-8" value="" style="endArrow=classic;html=1;strokeWidth=1;startSize=6;sourcePerimeterSpacing=0;targetPerimeterSpacing=0;jumpSize=6;" edge="1" parent="1">
                    <mxGeometry width="50" height="50" relative="1" as="geometry">
                        <mxPoint x="484" y="528" as="sourcePoint"/>
                        <mxPoint x="254.38" y="525.9999999999999" as="targetPoint"/>
                    </mxGeometry>
                </mxCell>
                <mxCell id="ih1GTp4goqAnx9n_RKBW-9" value="Notifysuccess" style="text;html=1;align=center;verticalAlign=middle;resizable=0;points=[];autosize=1;strokeColor=none;fillColor=none;" vertex="1" parent="1">
                    <mxGeometry x="307.91999999999996" y="502" width="100" height="30" as="geometry"/>
                </mxCell>
                <mxCell id="ih1GTp4goqAnx9n_RKBW-10" value="" style="endArrow=classic;html=1;entryX=0;entryY=1;entryDx=0;entryDy=0;" edge="1" parent="1">
                    <mxGeometry width="50" height="50" relative="1" as="geometry">
                        <mxPoint x="252" y="490" as="sourcePoint"/>
                        <mxPoint x="484.75" y="490.2500000000002" as="targetPoint"/>
                    </mxGeometry>
                </mxCell>
            </root>
        </mxGraphModel>
    </diagram>
</mxfile>